/* XPM */
static char *icon[] = {
/* columns rows colors chars-per-pixel */
"32 32 59 1 ",
"  c black",
". c #020202",
"X c gray2",
"o c #090909",
"O c gray4",
"+ c #0C0C0C",
"@ c #101010",
"# c gray8",
"$ c #161616",
"% c #181818",
"& c gray10",
"* c #1E1E1E",
"= c gray12",
"- c #202020",
"; c #222222",
": c #232323",
"> c #252525",
", c #272727",
"< c #282828",
"1 c #2A2A2A",
"2 c gray17",
"3 c gray18",
"4 c #2F2F2F",
"5 c #313131",
"6 c gray21",
"7 c #373737",
"8 c gray22",
"9 c #393939",
"0 c gray23",
"q c #3C3C3C",
"w c #444444",
"e c gray27",
"r c #464646",
"t c gray30",
"y c #505050",
"u c gray36",
"i c #5F5F5F",
"p c #606060",
"a c #626262",
"s c gray40",
"d c DimGray",
"f c #6C6C6C",
"g c #6D6D6D",
"h c gray43",
"j c #6F6F6F",
"k c gray44",
"l c #727272",
"z c #747474",
"x c #808080",
"c c #838383",
"v c #868686",
"b c #929292",
"n c gray63",
"m c gray70",
"M c #B7B7B7",
"N c gray72",
"B c #B9B9B9",
"V c white",
"C c None",
/* pixels */
"CCCCCCCCCCCCCCCCCCCCCCCCCCCCCCCC",
"CxxxxxCCCCCCCCCCCCCCCCCCCCCCCCCC",
"CxxxxxxCCCCCCCCCCCCCCCCCCCCCCCCC",
"CxxxxxxxxxxxcC70weuC9q8CiertCCCC",
"CnnnnnnnnnnnCC35< ,C: 6C>O0o@CCC",
"CmmmmmmmmmmmMCCC-+CCs CC1=Vt CCC",
"CmmmmmmmmmmmMCC8.bCCs CC2O4X:CCC",
"CmmmmmmmmmmmNCy fCCCs CC<@azCCCC",
"CmmmmmmmmmmmBC..&%-v# *C;$CCCCCC",
"CmmmmmmmmmmmNCpjlgkChjdCCCCCCCCC",
"CCCCCCCCCCCCCCCCCCCCCCCCCCCCCCCC",
"CCCCCxxxCCCCCCCCCCCCCCCCCCCCCCCC",
"CCCCCxxxCCCCxxxxxxCCCCCCCCCCCCCC",
"CCCCCxxxCCCCxxxxxxxCCCCCCCCCCCCC",
"CCCCCxxxCCCCxxxxxxxxxxxxCCCCCCCC",
"CCCCCxxxxxxxmmmmmmmmmmmmCCCCCCCC",
"CCCCCxxxxxxxmmmmmmmmmmmmCCCCCCCC",
"CCCCCxxxCCCCmmmmmmmmmmmmCCCCCCCC",
"CCCCCxxxCCCCmmmmmmmmmmmmCCCCCCCC",
"CCCCCxxxCCCCmmmmmmmmmmmmCCCCCCCC",
"CCCCCxxxCCCCCmmmmmmmmmmmCCCCCCCC",
"CCCCCxxxCCCCCCCCCCCCCCCCCCCCCCCC",
"CCCCCxxxCCCCxxxxxxCCCCCCCCCCCCCC",
"CCCCCxxxCCCCxxxxxxxCCCCCCCCCCCCC",
"CCCCCxxxCCCCxxxxxxxxxxxxCCCCCCCC",
"CCCCCxxxxxxCCnnnnnnnnnnnCCCCCCCC",
"CCCCCxxxxxxxmmmmmmmmmmmmCCCCCCCC",
"CCCCCCxxxxxCmmmmmmmmmmmmCCCCCCCC",
"CCCCCCCCCCCCmmmmmmmmmmmmCCCCCCCC",
"CCCCCCCCCCCCmmmmmmmmmmmmCCCCCCCC",
"CCCCCCCCCCCCmmmmmmmmmmmmCCCCCCCC",
"CCCCCCCCCCCCCCCCCCCCCCCCCCCCCCCC"
};
